<svg width="25" height="19" viewBox="0 0 25 19" fill="none" xmlns="http://www.w3.org/2000/svg">
<path d="M22.2002 7.36768L21.6514 5.99561L20.6782 3.5625C19.8428 1.47412 17.8501 0.125 15.6006 0.125H9.39941C7.15039 0.125 5.15723 1.47412 4.32178 3.5625L3.34863 5.99561L2.7998 7.36768C1.62207 7.81543 0.78125 8.94629 0.78125 10.2812V12.625C0.78125 13.4121 1.08203 14.1226 1.5625 14.6724V17.3125C1.5625 18.1753 2.26221 18.875 3.125 18.875H4.6875C5.55029 18.875 6.25 18.1753 6.25 17.3125V15.75H18.75V17.3125C18.75 18.1753 19.4497 18.875 20.3125 18.875H21.875C22.7378 18.875 23.4375 18.1753 23.4375 17.3125V14.6724C23.918 14.123 24.2188 13.4126 24.2188 12.625V10.2812C24.2188 8.94629 23.3779 7.81543 22.2002 7.36768ZM7.22314 4.72314C7.5791 3.8335 8.44092 3.25 9.39941 3.25H15.6006C16.5591 3.25 17.4209 3.8335 17.7769 4.72314L18.75 7.15625H6.25L7.22314 4.72314ZM4.6875 12.6152C3.75 12.6152 3.125 11.9922 3.125 11.0576C3.125 10.123 3.75 9.5 4.6875 9.5C5.625 9.5 7.03125 10.9019 7.03125 11.8364C7.03125 12.771 5.625 12.6152 4.6875 12.6152ZM20.3125 12.6152C19.375 12.6152 17.9688 12.771 17.9688 11.8364C17.9688 10.9019 19.375 9.5 20.3125 9.5C21.25 9.5 21.875 10.123 21.875 11.0576C21.875 11.9922 21.25 12.6152 20.3125 12.6152Z" fill="#938D0A"/>
</svg>
