<svg width="77" height="78" viewBox="0 0 77 78" fill="none" xmlns="http://www.w3.org/2000/svg">
<path d="M68.217 0.735596H8.95857C6.81543 0.735596 4.76007 1.6012 3.24465 3.14197C1.72923 4.68275 0.877869 6.77249 0.877869 8.95148L0.877869 69.2013C0.877869 71.3803 1.72923 73.47 3.24465 75.0108C4.76007 76.5516 6.81543 77.4172 8.95857 77.4172H68.217C70.3601 77.4172 72.4155 76.5516 73.9309 75.0108C75.4464 73.47 76.2977 71.3803 76.2977 69.2013V8.95148C76.2977 6.77249 75.4464 4.68275 73.9309 3.14197C72.4155 1.6012 70.3601 0.735596 68.217 0.735596ZM65.4578 53.3463L62.9326 64.472C62.8043 65.0377 62.4913 65.5424 62.0446 65.9039C61.5979 66.2654 61.0439 66.4624 60.473 66.4627C33.5374 66.4627 11.6521 44.2609 11.6521 16.825C11.6722 16.25 11.8732 15.6967 12.2257 15.2466C12.5781 14.7964 13.0634 14.4731 13.61 14.3243L24.5526 11.7569C24.7393 11.7167 24.9292 11.6944 25.12 11.6901C25.6083 11.7152 26.0811 11.8727 26.4893 12.1463C26.8976 12.4199 27.2263 12.7996 27.4415 13.246L32.4919 25.2275C32.6156 25.5505 32.6845 25.8926 32.6956 26.2391C32.6545 26.9991 32.3221 27.7125 31.7697 28.2263L25.391 33.5324C29.256 41.8611 35.8489 48.5643 44.0406 52.4939L49.2594 46.0085C49.7647 45.4469 50.4663 45.1089 51.2139 45.0671C51.5547 45.0783 51.8911 45.1483 52.2088 45.2742L63.9932 50.4092C64.4324 50.6276 64.8061 50.9618 65.0752 51.3769C65.3444 51.7921 65.4992 52.2729 65.5235 52.7695C65.5201 52.9635 65.4981 53.1567 65.4578 53.3463Z" fill="#BA9393"/>
</svg>
