<svg width="37" height="37" viewBox="0 0 37 37" fill="none" xmlns="http://www.w3.org/2000/svg">
<path d="M36.7765 17.5621C33.2929 10.7653 26.3965 6.16663 18.5 6.16663C10.6034 6.16663 3.70513 10.7685 0.223537 17.5628C0.0765917 17.8534 3.05176e-05 18.1746 3.05176e-05 18.5003C3.05176e-05 18.826 0.0765917 19.1471 0.223537 19.4378C3.70706 26.2346 10.6034 30.8333 18.5 30.8333C26.3965 30.8333 33.2949 26.2314 36.7765 19.4372C36.9234 19.1465 37 18.8253 37 18.4996C37 18.1739 36.9234 17.8528 36.7765 17.5621ZM18.5 27.75C16.6705 27.75 14.8821 27.2075 13.361 26.1911C11.8398 25.1747 10.6542 23.73 9.95411 22.0398C9.254 20.3496 9.07082 18.4897 9.42773 16.6954C9.78464 14.901 10.6656 13.2529 11.9593 11.9592C13.2529 10.6656 14.9011 9.78461 16.6954 9.4277C18.4897 9.07078 20.3496 9.25396 22.0398 9.95407C23.73 10.6542 25.1747 11.8398 26.1911 13.3609C27.2075 14.8821 27.75 16.6705 27.75 18.5C27.7506 19.7149 27.5117 20.918 27.0471 22.0405C26.5824 23.163 25.9011 24.183 25.042 25.042C24.183 25.9011 23.163 26.5824 22.0405 27.0471C20.918 27.5117 19.7149 27.7506 18.5 27.75ZM18.5 12.3333C17.9496 12.341 17.4027 12.4229 16.8742 12.5767C17.3098 13.1688 17.5189 13.8974 17.4635 14.6303C17.408 15.3633 17.0917 16.0521 16.5719 16.5719C16.0522 17.0917 15.3633 17.408 14.6304 17.4634C13.8974 17.5189 13.1688 17.3098 12.5768 16.8741C12.2396 18.1162 12.3005 19.4327 12.7508 20.6384C13.2011 21.844 14.0181 22.8781 15.0869 23.5951C16.1557 24.3121 17.4224 24.6759 18.7087 24.6353C19.9951 24.5946 21.2363 24.1516 22.2577 23.3686C23.2791 22.5856 24.0293 21.502 24.4025 20.2703C24.7758 19.0386 24.7535 17.7209 24.3386 16.5026C23.9237 15.2843 23.1373 14.2267 22.0899 13.4788C21.0425 12.7309 19.787 12.3303 18.5 12.3333Z" fill="white"/>
</svg>
