<svg width="43" height="43" viewBox="0 0 43 43" fill="none" xmlns="http://www.w3.org/2000/svg">
<path d="M36.2812 2.6875H6.71875C5.6496 2.6875 4.62423 3.11222 3.86823 3.86823C3.11222 4.62423 2.6875 5.6496 2.6875 6.71875L2.6875 36.2812C2.6875 37.3504 3.11222 38.3758 3.86823 39.1318C4.62423 39.8878 5.6496 40.3125 6.71875 40.3125H18.2456V27.5208H12.9546V21.5H18.2456V16.9111C18.2456 11.6915 21.353 8.80828 26.1124 8.80828C28.3918 8.80828 30.7752 9.21477 30.7752 9.21477V14.3378H28.149C25.5615 14.3378 24.7544 15.9436 24.7544 17.5905V21.5H30.5308L29.607 27.5208H24.7544V40.3125H36.2812C37.3504 40.3125 38.3758 39.8878 39.1318 39.1318C39.8878 38.3758 40.3125 37.3504 40.3125 36.2812V6.71875C40.3125 5.6496 39.8878 4.62423 39.1318 3.86823C38.3758 3.11222 37.3504 2.6875 36.2812 2.6875Z" fill="#00878B"/>
</svg>
