<svg width="43" height="43" viewBox="0 0 43 43" fill="none" xmlns="http://www.w3.org/2000/svg">
<path d="M21.5084 11.8418C16.167 11.8418 11.8586 16.1502 11.8586 21.4916C11.8586 26.833 16.167 31.1414 21.5084 31.1414C26.8498 31.1414 31.1582 26.833 31.1582 21.4916C31.1582 16.1502 26.8498 11.8418 21.5084 11.8418ZM21.5084 27.7652C18.0567 27.7652 15.2348 24.9517 15.2348 21.4916C15.2348 18.0314 18.0483 15.218 21.5084 15.218C24.9686 15.218 27.782 18.0314 27.782 21.4916C27.782 24.9517 24.9602 27.7652 21.5084 27.7652ZM33.8037 11.4471C33.8037 12.6984 32.7959 13.6978 31.5529 13.6978C30.3016 13.6978 29.3022 12.69 29.3022 11.4471C29.3022 10.2041 30.31 9.19628 31.5529 9.19628C32.7959 9.19628 33.8037 10.2041 33.8037 11.4471ZM40.1949 13.7314C40.0522 10.7164 39.3635 8.04569 37.1547 5.8453C34.9543 3.64491 32.2836 2.95624 29.2686 2.80507C26.1611 2.6287 16.8473 2.6287 13.7399 2.80507C10.7332 2.94784 8.06251 3.63651 5.85372 5.8369C3.64493 8.03729 2.96466 10.708 2.81349 13.723C2.63712 16.8305 2.63712 26.1443 2.81349 29.2517C2.95626 32.2668 3.64493 34.9375 5.85372 37.1379C8.06251 39.3383 10.7248 40.0269 13.7399 40.1781C16.8473 40.3545 26.1611 40.3545 29.2686 40.1781C32.2836 40.0353 34.9543 39.3467 37.1547 37.1379C39.3551 34.9375 40.0438 32.2668 40.1949 29.2517C40.3713 26.1443 40.3713 16.8389 40.1949 13.7314ZM36.1805 32.5859C35.5254 34.232 34.2572 35.5002 32.6027 36.1637C30.1252 37.1463 24.2463 36.9195 21.5084 36.9195C18.7705 36.9195 12.8832 37.1379 10.4141 36.1637C8.76798 35.5086 7.49982 34.2404 6.83634 32.5859C5.85372 30.1084 6.08048 24.2295 6.08048 21.4916C6.08048 18.7537 5.86212 12.8664 6.83634 10.3973C7.49142 8.75116 8.75958 7.483 10.4141 6.81952C12.8916 5.8369 18.7705 6.06366 21.5084 6.06366C24.2463 6.06366 30.1336 5.8453 32.6027 6.81952C34.2488 7.4746 35.517 8.74276 36.1805 10.3973C37.1631 12.8748 36.9363 18.7537 36.9363 21.4916C36.9363 24.2295 37.1631 30.1168 36.1805 32.5859Z" fill="#00878B"/>
</svg>
