<svg width="43" height="43" viewBox="0 0 43 43" fill="none" xmlns="http://www.w3.org/2000/svg">
<path d="M37.625 2.6875H5.3666C3.88848 2.6875 2.6875 3.90527 2.6875 5.4002V37.5998C2.6875 39.0947 3.88848 40.3125 5.3666 40.3125H37.625C39.1031 40.3125 40.3125 39.0947 40.3125 37.5998V5.4002C40.3125 3.90527 39.1031 2.6875 37.625 2.6875ZM14.059 34.9375H8.48242V16.9816H14.0674V34.9375H14.059ZM11.2707 14.5293C9.48184 14.5293 8.0373 13.0764 8.0373 11.2959C8.0373 9.51543 9.48184 8.0625 11.2707 8.0625C13.0512 8.0625 14.5041 9.51543 14.5041 11.2959C14.5041 13.0848 13.0596 14.5293 11.2707 14.5293ZM34.9627 34.9375H29.3861V26.2031C29.3861 24.1203 29.3441 21.4412 26.4887 21.4412C23.5828 21.4412 23.1377 23.7088 23.1377 26.052V34.9375H17.5611V16.9816H22.9109V19.434H22.9865C23.734 18.023 25.5564 16.5365 28.2691 16.5365C33.9129 16.5365 34.9627 20.257 34.9627 25.0945V34.9375Z" fill="#00878B"/>
</svg>
