<svg width="77" height="69" viewBox="0 0 77 69" fill="none" xmlns="http://www.w3.org/2000/svg">
<path d="M21.8278 60.0336C18.4758 60.0336 15.1238 57.0319 13.4478 55.7455C5.06786 49.7421 2.55387 47.5981 0.877869 46.3116V64.3217C0.877869 66.6896 2.7542 68.6098 5.06786 68.6098H38.5878C40.9015 68.6098 42.7778 66.6896 42.7778 64.3217V46.3116C41.1018 47.5981 38.5878 49.7421 30.2078 55.7455C28.5318 57.0319 25.1798 60.0336 21.8278 60.0336ZM38.5878 34.3049H5.06786C2.7542 34.3049 0.877869 36.2252 0.877869 38.593V40.7371C4.22986 43.31 3.81086 43.31 15.9618 52.315C17.2188 53.1726 19.7328 55.7455 21.8278 55.7455C23.9228 55.7455 26.4368 53.1726 27.6938 52.7438C39.8448 43.7388 39.4258 43.7388 42.7778 41.1659V38.593C42.7778 36.2252 40.9015 34.3049 38.5878 34.3049ZM72.1077 21.4406H30.2078C27.8941 21.4406 26.0178 23.3608 26.0178 25.7287V30.0168H38.5878C42.9362 30.0168 46.5213 33.4232 46.9298 37.7649L46.9678 37.7354V55.7455H72.1077C74.4214 55.7455 76.2977 53.8252 76.2977 51.4574V25.7287C76.2977 23.3608 74.4214 21.4406 72.1077 21.4406ZM67.9177 38.593H59.5378V30.0168H67.9177V38.593ZM21.8278 25.7287C21.8278 20.9997 25.587 17.1525 30.2078 17.1525H59.5378V4.28811C59.5378 1.92027 57.6614 0 55.3478 0H13.4478C11.1342 0 9.25785 1.92027 9.25785 4.28811V30.0168H21.8278V25.7287Z" fill="#BA9393"/>
</svg>
