<svg width="25" height="23" viewBox="0 0 25 23" fill="none" xmlns="http://www.w3.org/2000/svg">
<path d="M22.9219 13.467L24.9737 4.43922C25.1218 3.7874 24.6263 3.16669 23.9579 3.16669H6.91007L6.51224 1.22182C6.41311 0.73705 5.98655 0.388916 5.49171 0.388916H1.04167C0.466363 0.388916 0 0.855279 0 1.43058V2.12503C0 2.70033 0.466363 3.16669 1.04167 3.16669H4.07478L7.12374 18.0727C6.39431 18.4922 5.90278 19.2788 5.90278 20.1806C5.90278 21.5229 6.99097 22.6111 8.33333 22.6111C9.67569 22.6111 10.7639 21.5229 10.7639 20.1806C10.7639 19.5003 10.4841 18.8857 10.0337 18.4445H19.1329C18.6826 18.8857 18.4028 19.5003 18.4028 20.1806C18.4028 21.5229 19.491 22.6111 20.8333 22.6111C22.1757 22.6111 23.2639 21.5229 23.2639 20.1806C23.2639 19.2183 22.7045 18.3867 21.8933 17.9929L22.1327 16.9392C22.2809 16.2874 21.7854 15.6667 21.117 15.6667H9.46688L9.18281 14.2778H21.9061C22.3925 14.2778 22.8141 13.9413 22.9219 13.467Z" fill="#938D0A"/>
</svg>
